<?xml version="1.0" encoding="utf-8"?>
<!-- Generator: Adobe Illustrator 22.1.0, SVG Export Plug-In . SVG Version: 6.00 Build 0)  -->
<svg version="1.1" id="Layer_1" xmlns="http://www.w3.org/2000/svg" xmlns:xlink="http://www.w3.org/1999/xlink" x="0px" y="0px"
	 viewBox="0 0 72 72" style="enable-background:new 0 0 72 72;" xml:space="preserve">
<style type="text/css">
	.st0{fill:#FFFFFF;}
	.st1{fill:#310E31;}
	.st2{fill:#C9D5E3;}
	.st3{fill:#4C9CD6;}
	.st4{fill:#1470B8;}
	.st5{fill:#F04B4D;}
	.st6{fill:#DE333F;}
	.st7{fill:#3BB54A;}
	.st8{fill:#259B48;}
	.st9{fill:#676A75;}
	.st10{fill:#F26A56;}
	.st11{fill:#C61C31;}
	.st12{fill:#99B5CD;}
	.st13{fill:#F19920;}
	.st14{fill:#89C763;}
	.st15{fill:#FFCB5B;}
	.st16{fill:#3E414A;}
	.st17{fill:#E78825;}
	.st18{fill:#F6B545;}
	.st19{fill:#3689C9;}
	.st20{fill:#E2E7F0;}
	.st21{fill:#ABE1FA;}
	.st22{fill:#70B7E5;}
	.st23{fill:#585B67;}
	.st24{fill:#787B82;}
	.st25{fill:#0261A5;}
	.st26{fill:#444751;}
	.st27{fill:#FFE27A;}
	.st28{fill:#0E9347;}
	.st29{fill:#0A8040;}
	.st30{fill:#C0CFDD;}
	.st31{fill:#F79548;}
	.st32{fill:#D5E3EF;}
	.st33{fill:#B0C4D9;}
	.st34{fill:#F37321;}
	.st35{fill:#FAB070;}
	.st36{fill:#9675B4;}
	.st37{fill:#F48476;}
	.st38{fill:#79C36A;}
	.st39{fill:#AE89BE;}
	.st40{fill:#8664AB;}
	.st41{fill:#237EBC;}
	.st42{fill:#FBE2C5;}
	.st43{fill:#FFEED7;}
	.st44{fill:#F1584B;}
	.st45{fill:#E42E26;}
	.st46{fill:#CC1B2C;}
</style>
<g>
	<g>
		<polygon class="st0" points="54,38 37,21 54,4 71,21 		"/>
		<path class="st1" d="M54,39c-0.3,0-0.5-0.1-0.7-0.3l-17-17c-0.4-0.4-0.4-1,0-1.4l17-17c0.4-0.4,1-0.4,1.4,0l17,17
			c0.2,0.2,0.3,0.4,0.3,0.7c0,0.3-0.1,0.5-0.3,0.7l-17,17C54.5,38.9,54.3,39,54,39L54,39z M38.4,21L54,36.6L69.6,21L54,5.4L38.4,21z
			"/>
	</g>
	<g>
		<polygon class="st2" points="53,35.6 53,6.4 38.4,21 		"/>
	</g>
	<g>
		<polygon class="st3" points="54,33 42,21 54,9 66,21 		"/>
	</g>
	<g>
		<polygon class="st4" points="53,10 42,21 53,32 		"/>
	</g>
</g>
<g>
	<g>
		<polygon class="st0" points="18,38 1,21 18,4 35,21 		"/>
		<path class="st1" d="M18,39c-0.3,0-0.5-0.1-0.7-0.3l-17-17c-0.4-0.4-0.4-1,0-1.4l17-17c0.4-0.4,1-0.4,1.4,0l17,17
			c0.2,0.2,0.3,0.4,0.3,0.7c0,0.3-0.1,0.5-0.3,0.7l-17,17C18.5,38.9,18.3,39,18,39L18,39z M2.4,21L18,36.6L33.6,21L18,5.4L2.4,21z"
			/>
	</g>
	<g>
		<polygon class="st5" points="18,33 6,21 18,9 30,21 		"/>
	</g>
	<g>
		<path class="st6" d="M18,9l12,12L18,33l1.3-3.3c1.1-2.9,0.6-6.2-1.2-8.7l0,0c-1.9-2.5-2.3-5.7-1.3-8.7L18,9z"/>
	</g>
</g>
<g>
	<g>
		<rect x="23" y="1" class="st0" width="26" height="24"/>
		<path class="st1" d="M49,26H23c-0.6,0-1-0.4-1-1V1c0-0.6,0.4-1,1-1h26c0.6,0,1,0.4,1,1v24C50,25.6,49.6,26,49,26z M24,24h24V2H24
			V24z"/>
	</g>
	<g>
		<rect x="26" y="4" class="st7" width="20" height="18"/>
	</g>
	<g>
		<path class="st8" d="M36,13L36,13c1.3-3.2,3.7-5.9,6.8-7.4L46,4v18H26l3.2-1.6C32.3,18.9,34.7,16.2,36,13z"/>
	</g>
</g>
<g>
	<g>
		<path class="st20" d="M33,22H9c-1.1,0-2,0.9-2,2v31c0,1.1,0.9,2,2,2h54c1.1,0,2-0.9,2-2V21c0-1.1-0.9-2-2-2H33V22z"/>
	</g>
	<g>
		<path class="st30" d="M63,20h-4v33c0,1.1-0.9,2-2,2h-0.9c-3.2,0-5-3.5-3.3-6.2c1.4-2.3,2.2-5,2.2-7.8c0-0.6-0.4-1-1-1s-1,0.4-1,1
			c0,7.2-5.8,13-13,13c-0.6,0-1,0.4-1,1s0.4,1,1,1h19h4c0.6,0,1-0.4,1-1V21C64,20.4,63.6,20,63,20z"/>
	</g>
	<g>
		<path class="st30" d="M11,56H9c-0.6,0-1-0.4-1-1V24h3V56z"/>
	</g>
	<g>
		<rect x="8" y="31" class="st31" width="56" height="22"/>
	</g>
	<g>
		<path class="st0" d="M34,20h12.5c0.3,0,0.5,0.2,0.5,0.5l0,0c0,0.3-0.2,0.5-0.5,0.5H34V20z"/>
	</g>
	<g>
		<rect x="51" y="22" class="st9" width="10" height="7"/>
		<path class="st1" d="M61,30H51c-0.6,0-1-0.4-1-1v-7c0-0.6,0.4-1,1-1h10c0.6,0,1,0.4,1,1v7C62,29.6,61.6,30,61,30z M52,28h8v-5h-8
			V28z"/>
	</g>
	<g>
		<g>
			<circle class="st32" cx="25" cy="41" r="2.5"/>
		</g>
		<g>
			<path class="st1" d="M25,39c1.1,0,2,0.9,2,2c0,1.1-0.9,2-2,2s-2-0.9-2-2C23,39.9,23.9,39,25,39z M25,38c-1.7,0-3,1.3-3,3
				s1.3,3,3,3s3-1.3,3-3S26.7,38,25,38L25,38z"/>
		</g>
	</g>
	<g>
		<g>
			<path class="st0" d="M23.5,41.5c-0.3,0-0.5-0.2-0.5-0.5c0-1.1,0.9-2,2-2c0.3,0,0.5,0.2,0.5,0.5S25.3,40,25,40c-0.6,0-1,0.4-1,1
				C24,41.3,23.8,41.5,23.5,41.5z"/>
		</g>
	</g>
	<g>
		<g>
			<path class="st33" d="M26.5,40.5c0.3,0,0.5,0.2,0.5,0.5c0,1.1-0.9,2-2,2c-0.3,0-0.5-0.2-0.5-0.5S24.7,42,25,42c0.6,0,1-0.4,1-1
				C26,40.7,26.2,40.5,26.5,40.5z"/>
		</g>
	</g>
	<g>
		<rect x="21" y="19" class="st20" width="8" height="3"/>
	</g>
	<g>
		<rect x="11" y="19" class="st20" width="6" height="3"/>
	</g>
	<g>
		<rect x="25" y="20" class="st30" width="3" height="1"/>
	</g>
	<g>
		<rect x="14" y="20" class="st30" width="2" height="1"/>
	</g>
	<g>
		<rect x="27" y="20" class="st12" width="1" height="1"/>
	</g>
	<g>
		<rect x="15" y="20" class="st12" width="1" height="1"/>
	</g>
	<g>
		<rect x="8" y="31" class="st34" width="3" height="22"/>
	</g>
	<g>
		<rect x="59" y="31" class="st34" width="5" height="22"/>
	</g>
	<g>
		<rect x="11" y="31" class="st35" width="3" height="22"/>
	</g>
	<g>
		<path class="st0" d="M14,53h-3v3h2c0.6,0,1-0.4,1-1V53z"/>
	</g>
	<g>
		<path class="st0" d="M24.5,23H15h-1.5H12c-0.6,0-1,0.4-1,1v7h3v-5c0-1.1,0.9-2,2-2h8.5c0.3,0,0.5-0.2,0.5-0.5
			C25,23.2,24.8,23,24.5,23z"/>
	</g>
	<g>
		<g>
			<circle class="st9" cx="40" cy="41" r="12"/>
			<path class="st1" d="M40,54c-7.2,0-13-5.8-13-13s5.8-13,13-13s13,5.8,13,13S47.2,54,40,54z M40,30c-6.1,0-11,4.9-11,11
				s4.9,11,11,11s11-4.9,11-11S46.1,30,40,30z"/>
		</g>
		<g>
			<g>
				<path class="st23" d="M30,42c-0.6,0-1-0.4-1-1c0-6.1,4.9-11,11-11c0.6,0,1,0.4,1,1s-0.4,1-1,1c-5,0-9,4-9,9
					C31,41.6,30.6,42,30,42z"/>
			</g>
		</g>
		<g>
			<g>
				<path class="st24" d="M40,52c-0.6,0-1-0.4-1-1s0.4-1,1-1c5,0,9-4,9-9c0-0.6,0.4-1,1-1s1,0.4,1,1C51,47.1,46.1,52,40,52z"/>
			</g>
		</g>
		<g>
			<circle class="st4" cx="40" cy="41" r="7"/>
			<path class="st1" d="M40,49c-4.4,0-8-3.6-8-8s3.6-8,8-8s8,3.6,8,8S44.4,49,40,49z M40,35c-3.3,0-6,2.7-6,6s2.7,6,6,6s6-2.7,6-6
				S43.3,35,40,35z"/>
		</g>
		<g>
			<path class="st25" d="M44,38.4c0.1,0.7,0,1.4-0.2,2.1c-0.5,2.1-2.2,3.8-4.3,4.3C38.8,45,38.1,45,37.4,45c-0.7-0.1-1,0.9-0.4,1.2
				c1.2,0.7,2.7,1,4.2,0.7c2.3-0.5,4.2-2.3,4.6-4.6c0.3-1.6,0-3-0.7-4.2C44.8,37.4,43.9,37.7,44,38.4z"/>
		</g>
		<g>
			<circle class="st3" cx="38" cy="39" r="2"/>
		</g>
		<g>
			<circle class="st19" cx="41" cy="42" r="1"/>
		</g>
	</g>
	<g>
		<path class="st24" d="M53,23h-1v4l0.6-0.6c0.3-0.3,0.4-0.6,0.4-1v0c0-0.8,0.6-1.4,1.4-1.4h2c0.4,0,0.7-0.1,1-0.4L58,23H53z"/>
	</g>
	<g>
		<path class="st23" d="M59,28h1v-4l-0.6,0.6c-0.3,0.3-0.4,0.6-0.4,1v0c0,0.8-0.6,1.4-1.4,1.4h-2c-0.4,0-0.7,0.1-1,0.4L54,28H59z"/>
	</g>
	<g>
		<path class="st34" d="M56.5,36l-1,0.1l-0.6,4.6C54.8,40.3,54.4,40,54,40c-0.6,0-1,0.4-1,1c0,5.4-3.3,10-8,12h7.7
			c-0.7-1.2-0.7-2.8,0.1-4.2c0.7-1.2,1.3-2.5,1.7-3.9c0.1-0.5,0.6-0.9,1.2-1c0.1,0,0.3-0.1,0.4-0.1c1-0.4,1.5-1.5,1.5-2.8
			C57.5,40.2,56.5,36,56.5,36z M55,43L55,43l-0.1,0c0.1-0.6,0.1-1.2,0.1-1.8l2-0.1C57,42.1,56.1,43,55,43z"/>
	</g>
	<g>
		<polygon class="st30" points="56.5,36.1 56.4,41.3 53.6,40.7 55.5,35.9 		"/>
	</g>
	<g>
		<polygon class="st30" points="56.5,36.1 56.4,41.3 53.6,40.7 55.5,35.9 		"/>
	</g>
	<g>
		<polygon class="st33" points="55.2,41 56.4,41.3 56.5,36.1 56,36 56,36 		"/>
	</g>
	<g>
		<circle class="st32" cx="56" cy="36" r="1"/>
	</g>
	<g>
		<circle class="st32" cx="55" cy="41" r="2"/>
	</g>
	<g>
		<g>
			<path class="st0" d="M53.5,41.5c-0.3,0-0.5-0.2-0.5-0.5c0-1.1,0.9-2,2-2c0.3,0,0.5,0.2,0.5,0.5S55.3,40,55,40c-0.6,0-1,0.4-1,1
				C54,41.3,53.8,41.5,53.5,41.5z"/>
		</g>
	</g>
	<g>
		<g>
			<path class="st33" d="M56.5,40.5c0.3,0,0.5,0.2,0.5,0.5c0,1.1-0.9,2-2,2c-0.3,0-0.5-0.2-0.5-0.5S54.7,42,55,42c0.6,0,1-0.4,1-1
				C56,40.7,56.2,40.5,56.5,40.5z"/>
		</g>
	</g>
	<path class="st1" d="M67.5,31H66V21c0-1.7-1.3-3-3-3H33c-0.6,0-1,0.4-1,1v2h-2v-2c0-0.6-0.4-1-1-1h-8c-0.6,0-1,0.4-1,1v2h-2v-2
		c0-0.6-0.4-1-1-1h-6c-0.6,0-1,0.4-1,1v2H9c-1.7,0-3,1.3-3,3v7H4.5C3.1,31,2,32.1,2,33.5c0,0.8,0.4,1.5,1,2v31c0,3,2.5,5.5,5.5,5.5
		s5.5-2.5,5.5-5.5v-1c0-1.9,1.6-3.5,3.5-3.5h37c1.9,0,3.5,1.6,3.5,3.5v1c0,3,2.5,5.5,5.5,5.5s5.5-2.5,5.5-5.5v-31c0.6-0.5,1-1.2,1-2
		C70,32.1,68.9,31,67.5,31z M22,20h6v1h-6V20z M12,20h4v1h-4V20z M8,24c0-0.6,0.4-1,1-1h2h6h4h8h4c0.6,0,1-0.4,1-1v-2h29
		c0.6,0,1,0.4,1,1v11v3v20c0,0.6-0.4,1-1,1H9c-0.6,0-1-0.4-1-1V35v-3V24z M4.3,33.1C4.3,33,4.4,33,4.5,33H6v1H5
		C5,33.5,4.7,33.2,4.3,33.1z M67,66.5c0,1.9-1.6,3.5-3.5,3.5S60,68.4,60,66.5v-1c0-3-2.5-5.5-5.5-5.5h-37c-3,0-5.5,2.5-5.5,5.5v1
		c0,1.9-1.6,3.5-3.5,3.5S5,68.4,5,66.5V36h1v19c0,1.7,1.3,3,3,3h54c1.7,0,3-1.3,3-3V36h1V66.5z M67,34h-1v-1h1.5
		c0.1,0,0.2,0,0.2,0.1C67.3,33.2,67,33.5,67,34z"/>
</g>
</svg>
